# xmcd
#
# Track frame offsets:
#	150
#	25685
#	43161
#	58967
#	68317
#	85935
#
# Disc length: 1824 seconds
#
# Revision: 0
# Processed by: cddbd v1.5.2PL0 Copyright (c) Steve Scherf et al.
# Submitted via: audiograbber 1.83.01
#
DISCID=46071e06
DTITLE=ubik. - The World Is A Glorious Biomechanical Nightmare
DYEAR=2008
DGENRE=psy-prog drift core
TTITLE0=! ! ! ! ! !
TTITLE1=disrepair
TTITLE2=7 feet under
TTITLE3=glitch
TTITLE4=the spangler
TTITLE5=external retraction
EXTD=http://ubik.crumpled.com
EXTT0=http://ubik.crumpled.com
EXTT1=http://ubik.crumpled.com
EXTT2=http://ubik.crumpled.com
EXTT3=http://ubik.crumpled.com
EXTT4=http://ubik.crumpled.com
EXTT5=http://ubik.crumpled.com
PLAYORDER=
